<?xml version="1.0" encoding="UTF-8"?>
<svg xmlns="http://www.w3.org/2000/svg" xmlns:xlink="http://www.w3.org/1999/xlink" width="150pt" height="150pt" viewBox="0 0 150 150" version="1.1">
<g id="surface1">
<path style=" stroke:none;fill-rule:nonzero;fill:rgb(8.627451%,8.627451%,8.627451%);fill-opacity:1;" d="M 148.066406 31.480469 C 146.726562 31.167969 145.390625 32.003906 145.078125 33.34375 C 145.078125 33.347656 145.078125 33.347656 145.078125 33.347656 L 135.476562 74.957031 C 132.648438 87.417969 121.550781 96.242188 108.773438 96.195312 L 31.671875 96.195312 L 23.160156 22.507812 C 22.429688 16.226562 17.109375 11.488281 10.785156 11.488281 L 2.992188 11.488281 C 1.617188 11.488281 0.5 12.601562 0.5 13.976562 C 0.5 15.355469 1.617188 16.46875 2.992188 16.46875 L 10.785156 16.46875 C 14.578125 16.46875 17.773438 19.3125 18.210938 23.078125 L 29.402344 120.046875 C 30.082031 125.871094 34.746094 130.421875 40.582031 130.964844 C 41.753906 138.171875 47.964844 143.472656 55.265625 143.5 C 62.566406 143.527344 68.816406 138.273438 70.042969 131.078125 L 95.40625 131.078125 C 96.703125 138.738281 103.652344 144.132812 111.398438 143.484375 C 119.144531 142.832031 125.097656 136.355469 125.097656 128.585938 C 125.097656 120.8125 119.144531 114.335938 111.398438 113.6875 C 103.652344 113.039062 96.703125 118.429688 95.40625 126.09375 L 70.042969 126.09375 C 68.828125 118.933594 62.636719 113.683594 55.375 113.65625 C 48.113281 113.628906 41.882812 118.832031 40.617188 125.984375 C 37.300781 125.472656 34.738281 122.8125 34.351562 119.480469 L 32.246094 101.179688 L 108.773438 101.179688 C 123.875 101.238281 136.992188 90.800781 140.332031 76.074219 L 149.9375 34.46875 C 150.246094 33.125 149.410156 31.789062 148.066406 31.480469 Z M 110.132812 118.621094 C 115.636719 118.621094 120.097656 123.082031 120.097656 128.585938 C 120.097656 134.089844 115.636719 138.550781 110.132812 138.550781 C 104.628906 138.550781 100.167969 134.089844 100.164062 128.585938 C 100.164062 123.082031 104.628906 118.621094 110.132812 118.621094 Z M 55.316406 118.621094 C 60.820312 118.621094 65.28125 123.082031 65.28125 128.585938 C 65.28125 134.089844 60.820312 138.550781 55.316406 138.550781 C 49.8125 138.550781 45.351562 134.089844 45.351562 128.585938 C 45.347656 123.082031 49.8125 118.621094 55.316406 118.621094 Z M 55.316406 118.621094 "/>
<path style=" stroke:none;fill-rule:nonzero;fill:rgb(8.627451%,8.627451%,8.627451%);fill-opacity:1;" d="M 110.199219 53.8125 C 109.226562 52.839844 107.644531 52.839844 106.671875 53.8125 L 82.722656 77.765625 L 82.722656 8.992188 C 82.722656 7.617188 81.609375 6.5 80.230469 6.5 C 78.855469 6.5 77.738281 7.617188 77.738281 8.992188 L 77.738281 77.765625 L 53.789062 53.8125 C 53.160156 53.171875 52.234375 52.914062 51.367188 53.144531 C 50.5 53.375 49.820312 54.050781 49.589844 54.921875 C 49.363281 55.789062 49.617188 56.714844 50.261719 57.339844 L 78.464844 85.542969 C 79.4375 86.515625 81.015625 86.519531 81.988281 85.546875 L 110.195312 57.339844 C 111.171875 56.367188 111.171875 54.789062 110.199219 53.8125 Z M 110.199219 53.8125 "/>
</g>
</svg>
