<svg class="restore-order__form-empty-icon" style="enable-background:new 0 0 2000 2000;" version="1.1" viewBox="0 0 2000 2000" xml:space="preserve" xmlns="http://www.w3.org/2000/svg" xmlns:xlink="http://www.w3.org/1999/xlink">
    <path fill="#EDEBED" d="M1408.6,1518.7c29.7,0,53.9,24.2,53.9,53.9s-24.2,53.8-53.9,53.8c-29.7,0-53.9-24.2-53.9-53.8S1378.9,1518.7,1408.6,1518.7z"></path>
    <path d="M1792,558.8c0,1-0.1,2-0.2,2.9c0,0.2-0.1,0.5-0.1,0.7c0,0.1,0,0.2-0.1,0.3c-1.8,7.8-8.8,13.7-17.1,13.7h-21.7l4.5-21.2c1.7-8.3,9.1-14,17.2-14h0c1,0,2,0.1,2.9,0.2c0.2,0,0.5,0.1,0.7,0.1c1,0.2,2,0.5,3,0.9c0.2,0.1,0.5,0.2,0.7,0.3h0c0.2,0.1,0.4,0.2,0.7,0.3c0.2,0.1,0.5,0.2,0.7,0.4c0.2,0.1,0.4,0.2,0.6,0.4c0.2,0.1,0.5,0.3,0.7,0.5c0.4,0.3,0.8,0.6,1.1,0.9c0.2,0.2,0.4,0.3,0.6,0.5c0.2,0.2,0.4,0.3,0.5,0.5c0.2,0.2,0.4,0.4,0.5,0.5c0.2,0.2,0.3,0.4,0.5,0.5c0.2,0.2,0.3,0.4,0.5,0.6c0.3,0.4,0.6,0.8,0.9,1.2c0,0,0,0,0,0c0.3,0.4,0.5,0.8,0.8,1.2c0.1,0.2,0.2,0.4,0.4,0.7c0.1,0.2,0.2,0.4,0.3,0.7c0.1,0.2,0.2,0.4,0.3,0.6c0.3,0.7,0.5,1.4,0.7,2.1c0.1,0.2,0.1,0.5,0.2,0.7c0.1,0.2,0.1,0.5,0.1,0.7c0.1,0.4,0.1,0.9,0.2,1.3c0,0.3,0,0.6,0.1,0.8C1792,558.1,1792,558.5,1792,558.8L1792,558.8z"></path>
    <path d="M1792,558.7c0-0.3,0-0.6,0-0.9C1792,558.1,1792,558.5,1792,558.7z"></path>
    <path d="M1792,557.9c0-0.3,0-0.5-0.1-0.8C1791.9,557.3,1792,557.6,1792,557.9z"></path>
    <path d="M1791.6,562.4c0-0.2,0.1-0.5,0.1-0.7C1791.7,561.9,1791.7,562.2,1791.6,562.4z"></path>
    <path d="M1791.7,555.7c0-0.2-0.1-0.5-0.1-0.7C1791.6,555.3,1791.7,555.5,1791.7,555.7z"></path>
    <path d="M1791.6,555c0-0.2-0.1-0.5-0.2-0.7C1791.5,554.5,1791.5,554.8,1791.6,555z"></path>
    <path d="M1791.6,562.7l-154.3,730.8c0.2-1.1,0.3-2.2,0.3-3.3c0-9.7-7.9-17.6-17.6-17.6h-14.3l147-696.3h21.7C1782.8,576.4,1789.8,570.5,1791.6,562.7z"></path>
    <path d="M1790.7,552.2c-0.1-0.2-0.2-0.4-0.3-0.6C1790.5,551.7,1790.6,551.9,1790.7,552.2z"></path>
    <path d="M1790.4,551.5c-0.1-0.2-0.2-0.4-0.3-0.7C1790.2,551.1,1790.3,551.3,1790.4,551.5z"></path>
    <path d="M1790.1,550.9c-0.1-0.2-0.2-0.4-0.4-0.7C1789.9,550.4,1790,550.6,1790.1,550.9z"></path>
    <path d="M1789,548.9c0.3,0.4,0.5,0.8,0.8,1.2C1789.5,549.8,1789.3,549.4,1789,548.9z"></path>
    <path d="M1789,548.9c-0.3-0.4-0.6-0.8-0.9-1.2C1788.4,548.1,1788.7,548.5,1789,548.9z"></path>
    <path d="M1788.1,547.8c-0.2-0.2-0.3-0.4-0.5-0.6C1787.8,547.4,1788,547.6,1788.1,547.8z"></path>
    <path d="M1787.6,547.2c-0.2-0.2-0.3-0.4-0.5-0.5C1787.3,546.8,1787.5,547,1787.6,547.2z"></path>
    <path d="M1786.6,546.1c0.2,0.2,0.4,0.4,0.5,0.5C1787,546.5,1786.8,546.3,1786.6,546.1z"></path>
    <path d="M1786.6,546.1c-0.2-0.2-0.4-0.3-0.5-0.5C1786.3,545.8,1786.5,545.9,1786.6,546.1z"></path>
    <path d="M1784.4,544.3c0.4,0.3,0.8,0.5,1.1,0.9C1785.2,544.8,1784.8,544.6,1784.4,544.3z"></path>
    <path d="M1783.7,543.8c-0.2-0.1-0.4-0.2-0.6-0.4C1783.3,543.6,1783.5,543.7,1783.7,543.8z"></path>
    <path d="M1782.4,543.1c-0.2-0.1-0.4-0.2-0.7-0.3C1782,542.9,1782.2,543,1782.4,543.1z"></path>
    <path d="M1781.7,542.8c-0.2-0.1-0.5-0.2-0.7-0.3C1781.3,542.6,1781.5,542.6,1781.7,542.8z"></path>
    <path d="M1778,541.6c-0.2,0-0.5-0.1-0.7-0.1C1777.6,541.5,1777.8,541.5,1778,541.6z"></path>
    <path d="M522.1,541.2h1252.3c-8.1,0-15.4,5.7-17.2,14l-4.5,21.2H529.5L522.1,541.2z"></path>
    <path fill="#EDEBED" d="M1752.7,576.4l-147,696.3H676.5l-147-696.3H1752.7z M1334,925.1c0-105.9-86.1-192-192-192s-192,86.1-192,192s86.1,192,192,192S1334,1030.9,1334,925.1z"></path>
    <path d="M1637.6,1290.2c0,1.1-0.1,2.2-0.3,3.3l-0.1,0.4c-0.2,0.9-0.4,1.8-0.8,2.6c-0.1,0.2-0.2,0.4-0.2,0.6c-0.1,0.3-0.2,0.5-0.4,0.8c-0.1,0.2-0.2,0.5-0.4,0.8c-0.3,0.5-0.6,1-0.9,1.5c-0.2,0.2-0.3,0.4-0.5,0.6c-0.8,1.1-1.8,2.2-2.9,3c-1,0.8-2.1,1.5-3.2,2.1c-0.2,0.1-0.4,0.2-0.7,0.3c-1.1,0.5-2.3,0.9-3.6,1.2c-0.2,0-0.4,0.1-0.6,0.1c-0.4,0.1-0.7,0.1-1.1,0.2c-0.2,0-0.4,0-0.6,0.1c-0.2,0-0.4,0-0.6,0c-0.3,0-0.6,0-0.9,0H662.3c1.2,0,2.4-0.1,3.6-0.4c9.5-2,15.6-11.3,13.6-20.8l-2.9-14h929.2h14.3C1629.7,1272.6,1637.6,1280.5,1637.6,1290.2z"></path>
    <path d="M1637.2,1293.9l0.1-0.4C1637.2,1293.6,1637.2,1293.7,1637.2,1293.9z"></path>
    <path d="M1636.2,1297.1c0.1-0.2,0.2-0.4,0.2-0.6C1636.3,1296.7,1636.3,1296.9,1636.2,1297.1z"></path>
    <path d="M1635.8,1297.8c0.1-0.3,0.2-0.5,0.4-0.8C1636.1,1297.3,1636,1297.6,1635.8,1297.8z"></path>
    <path d="M1635.4,1298.6c0.1-0.2,0.3-0.5,0.4-0.8C1635.7,1298.1,1635.6,1298.4,1635.4,1298.6z"></path>
    <path d="M1634.1,1300.7c0.2-0.2,0.3-0.4,0.5-0.6C1634.4,1300.3,1634.2,1300.5,1634.1,1300.7z"></path>
    <path d="M1631.2,1303.8c1.1-0.9,2.1-1.9,2.9-3C1633.2,1301.9,1632.2,1302.9,1631.2,1303.8z"></path>
    <path d="M1620,1425.7c9.7,0,17.6,7.9,17.6,17.6s-7.9,17.6-17.6,17.6H649.5c-51.9,0-94.1-42.2-94.1-94.1c0-48.9,37.5-89.2,85.3-93.7l4.4,20.8c0.4,2.1,1.2,4,2.3,5.7c0.2,0.4,0.5,0.8,0.8,1.2c1.5,2,3.5,3.7,5.7,4.9c0.4,0.2,0.7,0.4,1.1,0.6c0.9,0.4,1.9,0.8,2.9,1c0.5,0.1,0.9,0.2,1.4,0.3c0.3,0,0.6,0.1,0.9,0.1c0.5,0.1,0.9,0.1,1.4,0.1c0.2,0,0.5,0,0.8,0h-12.7c-32.5,0-59,26.4-59,58.9c0,32.5,26.4,59,59,59H1620z"></path>
    <path d="M1627.3,1306.2c0.2-0.1,0.5-0.2,0.7-0.3C1627.7,1306,1627.5,1306.1,1627.3,1306.2z"></path>
    <path d="M1623.2,1307.5c0.2,0,0.4-0.1,0.6-0.1C1623.5,1307.4,1623.3,1307.5,1623.2,1307.5z"></path>
    <path d="M1621.5,1307.7c0.2,0,0.4,0,0.6-0.1C1621.9,1307.7,1621.7,1307.7,1621.5,1307.7z"></path>
    <path d="M1620,1307.8c0.3,0,0.6,0,0.9,0C1620.6,1307.8,1620.3,1307.8,1620,1307.8z"></path>
    <path d="M1408.6,1483.6c49.1,0,89,39.9,89,89c0,49.1-39.9,89-89,89c-49.1,0-89-39.9-89-89C1319.6,1523.5,1359.5,1483.6,1408.6,1483.6z M1462.5,1572.6c0-29.7-24.2-53.9-53.9-53.9c-29.7,0-53.9,24.2-53.9,53.9s24.2,53.8,53.9,53.8C1438.3,1626.4,1462.5,1602.3,1462.5,1572.6z"></path>
    <path d="M1142,733.1c105.9,0,192,86.1,192,192s-86.1,192-192,192s-192-86.1-192-192S1036.1,733.1,1142,733.1z M1298.8,925.1c0-86.5-70.4-156.8-156.8-156.8s-156.8,70.4-156.8,156.8s70.4,156.8,156.8,156.8S1298.8,1011.5,1298.8,925.1z"></path>
    <path fill="#FF8587" d="M1142,768.2c86.5,0,156.8,70.4,156.8,156.8s-70.4,156.8-156.8,156.8s-156.8-70.4-156.8-156.8S1055.5,768.2,1142,768.2z M1228.5,863.4c6.9-6.9,6.9-18,0-24.9c-6.9-6.9-18-6.9-24.9,0l-61.7,61.7l-61.7-61.7c-6.9-6.9-18-6.9-24.9,0c-6.9,6.9-6.9,18,0,24.9l61.7,61.7l-61.7,61.6c-6.9,6.9-6.9,18,0,24.9c3.4,3.4,7.9,5.2,12.4,5.2c4.5,0,9-1.7,12.4-5.2l61.7-61.7l61.7,61.7c3.4,3.4,7.9,5.2,12.4,5.2c4.5,0,9-1.7,12.4-5.2c6.9-6.9,6.9-18,0-24.9l-61.7-61.6L1228.5,863.4z"></path>
    <path d="M1228.5,838.5c6.9,6.9,6.9,18,0,24.9l-61.7,61.7l-24.9-24.9l61.7-61.7C1210.5,831.7,1221.6,831.7,1228.5,838.5z"></path>
    <path d="M1228.5,986.7c6.9,6.9,6.9,18,0,24.9c-3.4,3.4-7.9,5.2-12.4,5.2c-4.5,0-9-1.7-12.4-5.2l-61.7-61.7l24.9-24.9L1228.5,986.7z"></path>
    <polygon points="1142,900.2 1166.9,925.1 1142,949.9 1117.1,925.1"></polygon>
    <path d="M1080.3,838.5l61.7,61.7l-24.9,24.9l-61.7-61.7c-6.9-6.9-6.9-18,0-24.9C1062.3,831.7,1073.5,831.7,1080.3,838.5z"></path>
    <path d="M1142,949.9l-61.7,61.7c-3.4,3.4-7.9,5.2-12.4,5.2c-4.5,0-9-1.7-12.4-5.2c-6.9-6.9-6.9-18,0-24.9l61.7-61.6L1142,949.9z"></path>
    <path d="M784.3,1483.6c49.1,0,89,39.9,89,89c0,49.1-39.9,89-89,89c-49.1,0-89-39.9-89-89C695.3,1523.5,735.2,1483.6,784.3,1483.6z M838.2,1572.6c0-29.7-24.2-53.9-53.8-53.9c-29.7,0-53.9,24.2-53.9,53.9s24.2,53.8,53.9,53.8C814,1626.4,838.2,1602.3,838.2,1572.6z"></path>
    <path fill="#EDEBED" d="M784.3,1518.7c29.7,0,53.8,24.2,53.8,53.9s-24.2,53.8-53.8,53.8c-29.7,0-53.9-24.2-53.9-53.8S754.6,1518.7,784.3,1518.7z"></path>
    <path d="M679.5,1286.6c2,9.5-4.1,18.8-13.6,20.8c-1.2,0.2-2.4,0.4-3.6,0.4h0c-0.2,0-0.5,0-0.8,0c-0.5,0-0.9-0.1-1.4-0.1c-0.3,0-0.6-0.1-0.9-0.1c-0.5-0.1-0.9-0.2-1.4-0.3c-1-0.3-2-0.6-2.9-1c-0.4-0.2-0.8-0.4-1.1-0.6c-2.2-1.2-4.1-2.9-5.7-4.9c-0.3-0.4-0.5-0.8-0.8-1.2c-1.1-1.7-1.8-3.6-2.3-5.7l-4.4-20.8c2.9-0.3,5.9-0.4,8.9-0.4h27L679.5,1286.6z"></path>
    <path d="M529.5,576.4l147,696.3h-27c-3,0-5.9,0.1-8.9,0.4l-150-710.4c1.8,7.8,8.8,13.7,17.1,13.7H529.5z"></path>
    <path d="M661.5,1307.8c-0.5,0-0.9-0.1-1.4-0.1C660.6,1307.7,661,1307.8,661.5,1307.8z"></path>
    <path d="M657.9,1307.3c0.5,0.1,0.9,0.2,1.4,0.3C658.8,1307.5,658.3,1307.4,657.9,1307.3z"></path>
    <path d="M653.8,1305.6c0.4,0.2,0.7,0.4,1.1,0.6C654.6,1306,654.2,1305.8,653.8,1305.6z"></path>
    <path d="M647.4,1299.5c0.2,0.4,0.5,0.8,0.8,1.2C647.9,1300.3,647.6,1299.9,647.4,1299.5z"></path>
    <path d="M522.1,541.2l7.4,35.2h-21.7c-8.4,0-15.4-5.8-17.1-13.7c0-0.1,0-0.2-0.1-0.3l-0.1-0.3c0,0,0-0.1,0-0.1c-0.2-1.1-0.3-2.2-0.3-3.3c0-9.7,7.9-17.6,17.6-17.6H522.1z"></path>
    <path d="M492.4,400.3l29.7,140.8h-14.3c-9.7,0-17.6,7.9-17.6,17.6c0,1.1,0.1,2.2,0.3,3.3l-29.7-140.5l-2.9-14c-2-9.5,4.1-18.8,13.6-20.8c1.1-0.2,2.1-0.4,3.2-0.4h0.5c1,0,2,0.1,3,0.2c0.3,0.1,0.5,0.1,0.8,0.2c0.5,0.1,0.9,0.2,1.4,0.4c0,0,0.1,0,0.1,0c0.5,0.2,1,0.3,1.4,0.5c0.2,0.1,0.5,0.2,0.7,0.3c0.5,0.2,0.9,0.4,1.3,0.7c0.2,0.1,0.4,0.2,0.6,0.4c0.4,0.2,0.8,0.5,1.2,0.8c0.2,0.1,0.4,0.3,0.6,0.5c0.2,0.1,0.4,0.3,0.6,0.5c0.2,0.2,0.4,0.3,0.5,0.5c0.4,0.3,0.7,0.7,1,1.1c0.2,0.2,0.3,0.4,0.5,0.6c0.3,0.4,0.6,0.8,0.9,1.2c0.3,0.4,0.5,0.8,0.8,1.3c0.4,0.7,0.7,1.4,1,2.2c0.1,0.2,0.1,0.4,0.2,0.6C492,398.8,492.2,399.6,492.4,400.3z"></path>
    <path d="M491.5,397.6c0.1,0.2,0.1,0.4,0.2,0.6C491.7,397.9,491.6,397.7,491.5,397.6z"></path>
    <path d="M490.6,562.1l0.1,0.3C490.6,562.3,490.6,562.2,490.6,562.1z"></path>
    <path d="M490.5,395.4c-0.2-0.4-0.5-0.9-0.8-1.3C490,394.5,490.3,394.9,490.5,395.4z"></path>
    <path d="M488.8,392.9c-0.1-0.2-0.3-0.4-0.5-0.6C488.5,392.5,488.7,392.7,488.8,392.9z"></path>
    <path d="M487.3,391.3c-0.2-0.2-0.4-0.3-0.5-0.5C487,390.9,487.2,391.1,487.3,391.3z"></path>
    <path d="M486.2,390.3c-0.2-0.2-0.4-0.3-0.6-0.5C485.9,390,486,390.2,486.2,390.3z"></path>
    <path d="M484.4,389c-0.2-0.1-0.4-0.3-0.6-0.4C484,388.8,484.2,388.9,484.4,389z"></path>
    <path d="M482.5,388c-0.2-0.1-0.5-0.2-0.7-0.3C482,387.8,482.3,387.9,482.5,388z"></path>
    <path d="M481.8,387.7c-0.5-0.2-0.9-0.4-1.4-0.5C480.9,387.3,481.4,387.5,481.8,387.7z"></path>
    <path d="M480.3,387.2c-0.5-0.1-0.9-0.2-1.4-0.4C479.4,386.9,479.9,387,480.3,387.2z"></path>
    <path d="M478.2,386.6c-1-0.2-2-0.2-3-0.2h-0.5C475.9,386.3,477,386.4,478.2,386.6z"></path>
    <path d="M273.6,386.4h201.1c-1.1,0-2.1,0.1-3.2,0.4c-9.5,2-15.6,11.3-13.6,20.8l2.9,14H273.6c-9.7,0-17.6-7.9-17.6-17.6C256,394.3,263.9,386.4,273.6,386.4z"></path>
</svg>