<svg xmlns="http://www.w3.org/2000/svg" width="300" height="300" viewBox="0 0 300 300">
  <g id="Сгруппировать_389" data-name="Сгруппировать 389" transform="translate(-4206 3038)">
    <g id="buy" transform="translate(4207 -3025)">
      <g id="Сгруппировать_49" data-name="Сгруппировать 49" transform="translate(0 9.972)">
        <g id="Сгруппировать_48" data-name="Сгруппировать 48" transform="translate(0 0)">
          <path id="Контур_248" data-name="Контур 248" d="M295.136,75.986a4.983,4.983,0,0,0-5.979,3.731.018.018,0,0,0,0,.006l-19.2,83.215a54.562,54.562,0,0,1-53.411,42.48H62.346L45.318,58.038A24.916,24.916,0,0,0,20.571,36H4.983a4.983,4.983,0,1,0,0,9.966H20.571a14.949,14.949,0,0,1,14.85,13.22L57.806,253.12a24.821,24.821,0,0,0,22.36,21.835,29.865,29.865,0,0,0,58.918.224h50.73a29.9,29.9,0,1,0,0-9.966h-50.73a29.866,29.866,0,0,0-58.853-.219A14.894,14.894,0,0,1,67.7,251.989l-4.206-36.6H216.544a64.487,64.487,0,0,0,63.123-50.213l19.206-83.215A4.982,4.982,0,0,0,295.136,75.986ZM219.265,250.265A19.932,19.932,0,1,1,199.332,270.2,19.933,19.933,0,0,1,219.265,250.265Zm-109.633,0A19.932,19.932,0,1,1,89.7,270.2,19.933,19.933,0,0,1,109.633,250.265Z" transform="translate(0 -35.998)" fill="#161616"/>
        </g>
      </g>
      <g id="Сгруппировать_51" data-name="Сгруппировать 51" transform="translate(98.065 0)">
        <g id="Сгруппировать_50" data-name="Сгруппировать 50">
          <path id="Контур_249" data-name="Контур 249" d="M278.821,114.626a4.989,4.989,0,0,0-7.056,0l-47.895,47.9V24.984a4.986,4.986,0,1,0-9.972,0V162.526l-47.9-47.9a4.989,4.989,0,1,0-7.055,7.055l56.406,56.4a4.986,4.986,0,0,0,7.051.009l.009-.009,56.406-56.4A4.989,4.989,0,0,0,278.821,114.626Z" transform="translate(-157.487 -19.998)" fill="#161616"/>
        </g>
      </g>
    </g>
    <rect id="Прямоугольник_78" data-name="Прямоугольник 78" width="300" height="300" transform="translate(4206 -3038)" fill="none"/>
  </g>
</svg>
